<?xml version="1.0" encoding="UTF-8" standalone="no"?>
<!-- Created with Inkscape (http://www.inkscape.org/) -->

<svg
   xmlns:dc="http://purl.org/dc/elements/1.1/"
   xmlns:cc="http://creativecommons.org/ns#"
   xmlns:rdf="http://www.w3.org/1999/02/22-rdf-syntax-ns#"
   xmlns:svg="http://www.w3.org/2000/svg"
   xmlns="http://www.w3.org/2000/svg"
   xmlns:sodipodi="http://sodipodi.sourceforge.net/DTD/sodipodi-0.dtd"
   xmlns:inkscape="http://www.inkscape.org/namespaces/inkscape"
   id="svg2"
   version="1.1"
   inkscape:version="0.48.4 r9939"
   width="350"
   height="350"
   sodipodi:docname="qrcode.svg">
  <metadata
     id="metadata8">
    <rdf:RDF>
      <cc:Work
         rdf:about="">
        <dc:format>image/svg+xml</dc:format>
        <dc:type
           rdf:resource="http://purl.org/dc/dcmitype/StillImage" />
        <dc:title></dc:title>
      </cc:Work>
    </rdf:RDF>
  </metadata>
  <defs
     id="defs6" />
  <sodipodi:namedview
     pagecolor="#ffffff"
     bordercolor="#666666"
     borderopacity="1"
     objecttolerance="10"
     gridtolerance="10"
     guidetolerance="10"
     inkscape:pageopacity="0"
     inkscape:pageshadow="2"
     inkscape:window-width="640"
     inkscape:window-height="480"
     id="namedview4"
     showgrid="false"
     showguides="true"
     inkscape:guide-bbox="true"
     inkscape:zoom="2.1161974"
     inkscape:cx="272.51711"
     inkscape:cy="94.66999"
     inkscape:current-layer="svg2">
    <sodipodi:guide
       orientation="1,0"
       position="154.79333,139.88205"
       id="guide3001" />
    <sodipodi:guide
       orientation="1,0"
       position="415.84022,68.304334"
       id="guide3003" />
    <sodipodi:guide
       orientation="0,1"
       position="197.99665,-72.772038"
       id="guide3775" />
    <sodipodi:guide
       orientation="0,1"
       position="204.61229,-86.94841"
       id="guide3777" />
    <sodipodi:guide
       orientation="0,1"
       position="199.41429,-114.35606"
       id="guide3779" />
    <sodipodi:guide
       orientation="0,1"
       position="178.62228,188.54574"
       id="guide3781" />
  </sodipodi:namedview>
  <rect
     style="color:#000000;fill:#800000;fill-opacity:1;fill-rule:nonzero;stroke:none;stroke-width:0.81327658999999997;marker:none;visibility:visible;display:inline;overflow:visible;enable-background:accumulate"
     id="rect2995"
     width="416.89749"
     height="427.78033"
     x="77.854347"
     y="113.08838" />
  <rect
     style="color:#000000;fill:#ffffff;fill-opacity:1;fill-rule:nonzero;stroke:none;stroke-width:0.81327659;marker:none;visibility:visible;display:inline;overflow:visible;enable-background:accumulate"
     id="rect2989"
     width="289.34723"
     height="331.55405"
     x="140.79233"
     y="147.56348"
     inkscape:export-filename="/home/warbrain/src/_Gnuside/poietic-generator/public/qrcode.png"
     inkscape:export-xdpi="217.15916"
     inkscape:export-ydpi="217.15916" />
  <path
     style="fill:#000000"
     d="m 154.96594,391.23708 0,-31.5 31.5,0 31.5,0 0,31.5 0,31.5 -31.5,0 -31.5,0 0,-31.5 z m 54,0 0,-22.5 -22.5,0 -22.5,0 0,22.5 0,22.5 22.5,0 22.5,0 0,-22.5 z m -36,0 0,-13.5 13.5,0 13.5,0 0,13.5 0,13.5 -13.5,0 -13.5,0 0,-13.5 z m 63,22.5 0,-9 -4.5,0 -4.5,0 0,-4.5 0,-4.5 9,0 9,0 0,-4.5 0,-4.5 -4.5,0 -4.5,0 0,-4.5 0,-4.5 -4.5,0 -4.5,0 0,-13.5 0,-13.5 -9,0 -9,0 0,-4.5 0,-4.5 -9,0 -9,0 0,4.5 0,4.5 -4.5,0 -4.5,0 0,-9 0,-9 -13.5,0 -13.5,0 0,-4.5 0,-4.5 9,0 9,0 0,-4.5 0,-4.5 9,0 9,0 0,-4.5 0,-4.5 4.5,0 4.5,0 0,-4.5 0,-4.5 4.5,0 4.5,0 0,-4.5 0,-4.5 4.5,0 4.5,0 0,-4.5 0,-4.5 -9,0 -9,0 0,4.5 0,4.5 -9,0 -9,0 0,9 0,9 -9,0 -9,0 0,4.5 0,4.5 -4.5,0 -4.5,0 0,-9 0,-9 9,0 9,0 0,-4.5 0,-4.5 -9,0 -9,0 0,-4.5 0,-4.5 9,0 9,0 0,-4.5 0,-4.5 -4.5,0 -4.5,0 0,-9 0,-9 -4.5,0 -4.5,0 0,-4.5 0,-4.5 4.5,0 4.5,0 0,4.5 0,4.5 9,0 9,0 0,4.5 0,4.5 4.5,0 4.5,0 0,-4.5 0,-4.5 13.5,0 13.5,0 0,-4.5 0,-4.5 -9,0 -9,0 0,-4.5 0,-4.5 18,0 18,0 0,9 0,9 4.5,0 4.5,0 0,4.5 0,4.5 -4.5,0 -4.5,0 0,9 0,9 9,0 9,0 0,-13.5 0,-13.5 4.5,0 4.5,0 0,-9 0,-9 4.5,0 4.5,0 0,-4.5 0,-4.5 -4.5,0 -4.5,0 0,-4.5 0,-4.49999 -4.5,0 -4.5,0 0,4.49999 0,4.5 -4.5,0 -4.5,0 0,-4.5 0,-4.49999 4.5,0 4.5,0 0,-9 0,-9 -4.5,0 -4.5,0 0,4.5 0,4.5 -4.5,0 -4.5,0 0,9 0,8.99999 -4.5,0 -4.5,0 0,-26.99999 0,-27 4.5,0 4.5,0 0,13.5 0,13.5 4.5,0 4.5,0 0,-18 0,-18 4.5,0 4.5,0 0,4.5 0,4.5 4.5,0 4.5,0 0,4.5 0,4.5 4.5,0 4.5,0 0,-4.5 0,-4.5 4.5,0 4.5,0 0,9 0,9 9,0 9,0 0,-9 0,-9 -4.5,0 -4.5,0 0,-4.5 0,-4.5 4.5,0 4.5,0 0,4.5 0,4.5 4.5,0 4.5,0 0,-4.5 0,-4.5 13.5,0 13.5,0 0,9 0,9 -4.5,0 -4.5,0 0,4.5 0,4.5 9,0 9,0 0,4.5 0,4.5 -9,0 -9,0 0,-4.5 0,-4.5 -4.5,0 -4.5,0 0,-4.5 0,-4.5 -4.5,0 -4.5,0 0,9 0,9 4.5,0 4.5,0 0,4.5 0,4.5 -9,0 -9,0 0,4.5 0,4.5 4.5,0 4.5,0 0,8.99999 0,9 4.5,0 4.5,0 0,-9 0,-8.99999 4.5,0 4.5,0 0,-4.5 0,-4.5 4.5,0 4.5,0 0,4.5 0,4.5 4.5,0 4.5,0 0,8.99999 0,9 4.5,0 4.5,0 0,9 0,9 4.5,0 4.5,0 0,-9 0,-9 22.5,0 22.5,0 0,4.5 0,4.5 4.5,0 4.5,0 0,9 0,9 -4.5,0 -4.5,0 0,4.5 0,4.5 4.5,0 4.5,0 0,4.5 0,4.5 -13.5,0 -13.5,0 0,9 0,9 9,0 9,0 0,-4.5 0,-4.5 4.5,0 4.5,0 0,13.5 0,13.5 -4.5,0 -4.5,0 0,-4.5 0,-4.5 -4.5,0 -4.5,0 0,4.5 0,4.5 -4.5,0 -4.5,0 0,9 0,9 -4.5,0 -4.5,0 0,-4.5 0,-4.5 -4.5,0 -4.5,0 0,9 0,9 4.5,0 4.5,0 0,4.5 0,4.5 4.5,0 4.5,0 0,4.5 0,4.5 -4.5,0 -4.5,0 0,4.5 0,4.5 4.5,0 4.5,0 0,4.5 0,4.5 4.5,0 4.5,0 0,4.5 0,4.5 4.5,0 4.5,0 0,-13.5 0,-13.5 -4.5,0 -4.5,0 0,-9 0,-9 4.5,0 4.5,0 0,-9 0,-9 4.5,0 4.5,0 0,9 0,9 -4.5,0 -4.5,0 0,9 0,9 4.5,0 4.5,0 0,13.5 0,13.5 -4.5,0 -4.5,0 0,4.5 0,4.5 4.5,0 4.5,0 0,13.5 0,13.5 -4.5,0 -4.5,0 0,-4.5 0,-4.5 -9,0 -9,0 0,4.5 0,4.5 -9,0 -9,0 0,-4.5 0,-4.5 -4.5,0 -4.5,0 0,4.5 0,4.5 -18,0 -18,0 0,-4.5 0,-4.5 18,0 18,0 0,-4.5 0,-4.5 4.5,0 4.5,0 0,-4.5 0,-4.5 9,0 9,0 0,4.5 0,4.5 4.5,0 4.5,0 0,-9 0,-9 -18,0 -18,0 0,4.5 0,4.5 -9,0 -9,0 0,4.5 0,4.5 -13.5,0 -13.5,0 0,-9 0,-9 4.5,0 4.5,0 0,4.5 0,4.5 4.5,0 4.5,0 0,-9 0,-9 -4.5,0 -4.5,0 0,-4.5 0,-4.5 -4.5,0 -4.5,0 0,4.5 0,4.5 -4.5,0 -4.5,0 0,4.5 0,4.5 -9,0 -9,0 0,-9 0,-9 4.5,0 4.5,0 0,-4.5 0,-4.5 4.5,0 4.5,0 0,-4.5 0,-4.5 -13.5,0 -13.5,0 0,9 0,9 -9,0 -9,0 0,4.5 0,4.5 9,0 9,0 0,4.5 0,4.5 -4.5,0 -4.5,0 0,18 0,18 -18,0 -18,0 0,-9 z m 18,-13.5 0,-4.5 4.5,0 4.5,0 0,-4.5 0,-4.5 -4.5,0 -4.5,0 0,-4.5 0,-4.5 -4.5,0 -4.5,0 0,4.5 0,4.5 4.5,0 4.5,0 0,4.5 0,4.5 -4.5,0 -4.5,0 0,4.5 0,4.5 4.5,0 4.5,0 0,-4.5 z m 117,-36 0,-13.5 -13.5,0 -13.5,0 0,13.5 0,13.5 13.5,0 13.5,0 0,-13.5 z m -18,0 0,-4.5 4.5,0 4.5,0 0,4.5 0,4.5 -4.5,0 -4.5,0 0,-4.5 z m -90,0 0,-4.5 -4.5,0 -4.5,0 0,-4.5 0,-4.5 9,0 9,0 0,-4.5 0,-4.5 -9,0 -9,0 0,4.5 0,4.5 -4.5,0 -4.5,0 0,-4.5 0,-4.5 -4.5,0 -4.5,0 0,-4.5 0,-4.5 -4.5,0 -4.5,0 0,-9 0,-9 4.5,0 4.5,0 0,4.5 0,4.5 4.5,0 4.5,0 0,-4.5 0,-4.5 4.5,0 4.5,0 0,4.5 0,4.5 4.5,0 4.5,0 0,4.5 0,4.5 4.5,0 4.5,0 0,-4.5 0,-4.5 -4.5,0 -4.5,0 0,-4.5 0,-4.5 9,0 9,0 0,-4.5 0,-4.5 13.5,0 13.5,0 0,4.5 0,4.5 -9,0 -9,0 0,9 0,9 -4.5,0 -4.5,0 0,4.5 0,4.5 4.5,0 4.5,0 0,-4.5 0,-4.5 4.5,0 4.5,0 0,4.5 0,4.5 4.5,0 4.5,0 0,4.5 0,4.5 4.5,0 4.5,0 0,4.5 0,4.5 -4.5,0 -4.5,0 0,4.5 0,4.5 4.5,0 4.5,0 0,-4.5 0,-4.5 4.5,0 4.5,0 0,4.5 0,4.5 4.5,0 4.5,0 0,-4.5 0,-4.5 -4.5,0 -4.5,0 0,-4.5 0,-4.5 4.5,0 4.5,0 0,-4.5 0,-4.5 -4.5,0 -4.5,0 0,4.5 0,4.5 -4.5,0 -4.5,0 0,-9 0,-9 9,0 9,0 0,-9 0,-9 -4.5,0 -4.5,0 0,-9 0,-9 -4.5,0 -4.5,0 0,-4.5 0,-4.5 9,0 9,0 0,4.5 0,4.5 9,0 9,0 0,-9 0,-9 4.5,0 4.5,0 0,9 0,9 4.5,0 4.5,0 0,9 0,9 4.5,0 4.5,0 0,-4.5 0,-4.5 4.5,0 4.5,0 0,-4.5 0,-4.5 -4.5,0 -4.5,0 0,-9 0,-9 4.5,0 4.5,0 0,-9 0,-9 4.5,0 4.5,0 0,-4.5 0,-4.5 4.5,0 4.5,0 0,-4.5 0,-4.5 -9,0 -9,0 0,9 0,9 -4.5,0 -4.5,0 0,-9 0,-9 -4.5,0 -4.5,0 0,13.5 0,13.5 4.5,0 4.5,0 0,4.5 0,4.5 -9,0 -9,0 0,-4.5 0,-4.5 -4.5,0 -4.5,0 0,4.5 0,4.5 -18,0 -18,0 0,-4.5 0,-4.5 13.5,0 13.5,0 0,-18 0,-18 -4.5,0 -4.5,0 0,4.5 0,4.5 -4.5,0 -4.5,0 0,4.5 0,4.5 4.5,0 4.5,0 0,4.5 0,4.5 -9,0 -9,0 0,4.5 0,4.5 -4.5,0 -4.5,0 0,-9 0,-9 -4.5,0 -4.5,0 0,4.5 0,4.5 -4.5,0 -4.5,0 0,-4.5 0,-4.5 -4.5,0 -4.5,0 0,4.5 0,4.5 -4.5,0 -4.5,0 0,-4.5 0,-4.5 -4.5,0 -4.5,0 0,9 0,9 22.5,0 22.5,0 0,4.5 0,4.5 -9,0 -9,0 0,4.5 0,4.5 -4.5,0 -4.5,0 0,4.5 0,4.5 -4.5,0 -4.5,0 0,-9 0,-9 -9,0 -9,0 0,9 0,9 -4.5,0 -4.5,0 0,9 0,9 -4.5,0 -4.5,0 0,-9 0,-9 -4.5,0 -4.5,0 0,9 0,9 -9,0 -9,0 0,-4.5 0,-4.5 4.5,0 4.5,0 0,-4.5 0,-4.5 -4.5,0 -4.5,0 0,4.5 0,4.5 -4.5,0 -4.5,0 0,4.5 0,4.5 -4.5,0 -4.5,0 0,4.5 0,4.5 4.5,0 4.5,0 0,-4.5 0,-4.5 4.5,0 4.5,0 0,4.5 0,4.5 4.5,0 4.5,0 0,4.5 0,4.5 -4.5,0 -4.5,0 0,4.5 0,4.5 4.5,0 4.5,0 0,-4.5 0,-4.5 4.5,0 4.5,0 0,4.5 0,4.5 4.5,0 4.5,0 0,4.5 0,4.5 4.5,0 4.5,0 0,9 0,9 9,0 9,0 0,-4.5 z m 36,-36 0,-4.5 9,0 9,0 0,4.5 0,4.5 -9,0 -9,0 0,-4.5 z m -45,-27 0,-4.5 9,0 9,0 0,4.5 0,4.5 -9,0 -9,0 0,-4.5 z m 54,0 0,-4.5 4.5,0 4.5,0 0,4.5 0,4.5 -4.5,0 -4.5,0 0,-4.5 z m -18,-9 0,-4.5 4.5,0 4.5,0 0,4.5 0,4.5 -4.5,0 -4.5,0 0,-4.5 z m 63,45 0,-4.5 -4.5,0 -4.5,0 0,4.5 0,4.5 4.5,0 4.5,0 0,-4.5 z m 9,-18 0,-4.5 -4.5,0 -4.5,0 0,-4.5 0,-4.5 -4.5,0 -4.5,0 0,9 0,9 9,0 9,0 0,-4.5 z m -126,-36 0,-4.5 -4.5,0 -4.5,0 0,-9 0,-9 4.5,0 4.5,0 0,-4.5 0,-4.5 -4.5,0 -4.5,0 0,4.5 0,4.5 -13.5,0 -13.5,0 0,4.5 0,4.5 -9,0 -9,0 0,-4.5 0,-4.5 -4.5,0 -4.5,0 0,4.5 0,4.5 4.5,0 4.5,0 0,4.5 0,4.5 9,0 9,0 0,-4.5 0,-4.5 9,0 9,0 0,4.5 0,4.5 4.5,0 4.5,0 0,4.5 0,4.5 4.5,0 4.5,0 0,-4.5 z m 45,-45 0,-4.5 4.5,0 4.5,0 0,-4.5 0,-4.5 4.5,0 4.5,0 0,-4.5 0,-4.49999 -4.5,0 -4.5,0 0,-4.5 0,-4.5 -4.5,0 -4.5,0 0,4.5 0,4.5 -4.5,0 -4.5,0 0,-9 0,-9 -4.5,0 -4.5,0 0,9 0,9 4.5,0 4.5,0 0,4.49999 0,4.5 4.5,0 4.5,0 0,4.5 0,4.5 -4.5,0 -4.5,0 0,4.5 0,4.5 4.5,0 4.5,0 0,-4.5 z m 0,-18 0,-4.49999 4.5,0 4.5,0 0,4.49999 0,4.5 -4.5,0 -4.5,0 0,-4.5 z m 54,0 0,-4.49999 -4.5,0 -4.5,0 0,4.49999 0,4.5 4.5,0 4.5,0 0,-4.5 z m -45,193.5 0,-9 -4.5,0 -4.5,0 0,-4.5 0,-4.5 9,0 9,0 0,4.5 0,4.5 4.5,0 4.5,0 0,4.5 0,4.5 -4.5,0 -4.5,0 0,4.5 0,4.5 -4.5,0 -4.5,0 0,-9 z m -135,-67.5 0,-4.5 9,0 9,0 0,4.5 0,4.5 -9,0 -9,0 0,-4.5 z m 18,-108 0,-4.5 4.5,0 4.5,0 0,4.5 0,4.5 -4.5,0 -4.5,0 0,-4.5 z m 72,0 0,-4.5 4.5,0 4.5,0 0,4.5 0,4.5 -4.5,0 -4.5,0 0,-4.5 z m -90,-44.99999 0,-31.5 31.5,0 31.5,0 0,31.5 0,31.49999 -31.5,0 -31.5,0 0,-31.49999 z m 54,0 0,-22.5 -22.5,0 -22.5,0 0,22.5 0,22.5 22.5,0 22.5,0 0,-22.5 z m -36,0 0,-13.5 13.5,0 13.5,0 0,13.5 0,13.5 -13.5,0 -13.5,0 0,-13.5 z m 180,0 0,-31.5 31.5,0 31.5,0 0,31.5 0,31.49999 -31.5,0 -31.5,0 0,-31.49999 z m 54,0 0,-22.5 -22.5,0 -22.5,0 0,22.5 0,22.5 22.5,0 22.5,0 0,-22.5 z m -36,0 0,-13.5 13.5,0 13.5,0 0,13.5 0,13.5 -13.5,0 -13.5,0 0,-13.5 z"
     id="path2987"
     inkscape:connector-curvature="0"
     inkscape:export-filename="/home/warbrain/src/_Gnuside/poietic-generator/public/qrcode.png"
     inkscape:export-xdpi="217.15916"
     inkscape:export-ydpi="217.15916" />
  <text
     xml:space="preserve"
     style="font-size:39.85404968px;font-style:normal;font-variant:normal;font-weight:bold;font-stretch:normal;text-align:start;line-height:100%;letter-spacing:0px;word-spacing:0px;writing-mode:lr-tb;text-anchor:start;color:#000000;fill:#000000;fill-opacity:1;fill-rule:nonzero;stroke:none;stroke-width:3pt;marker:none;visibility:visible;display:inline;overflow:visible;font-family:Bitstream Vera Sans;-inkscape-font-specification:Sans Bold"
     x="152.36658"
     y="464.6257"
     id="text2997"
     sodipodi:linespacing="100%"
     inkscape:export-filename="/home/warbrain/src/_Gnuside/poietic-generator/public/qrcode.png"
     inkscape:export-xdpi="217.15916"
     inkscape:export-ydpi="217.15916"><tspan
       sodipodi:role="line"
       id="tspan2999"
       x="152.36658"
       y="464.6257"
       style="font-size:37.5px;fill:#000000;fill-opacity:1">POIETIC.NET</tspan></text>
</svg>
